<svg xmlns="http://www.w3.org/2000/svg" width="20" height="20" viewBox="0 0 20 20"><g><g><g/><g><g><g><path fill="#f58d17" d="M9.999 10.03c-5.27 0-9.559 4.288-9.559 9.559a.416.416 0 0 0 .831 0c0-4.813 3.915-8.728 8.728-8.728 4.812 0 8.727 3.915 8.727 8.728a.416.416 0 0 0 .831 0c0-5.272-4.288-9.559-9.558-9.559z"/></g></g></g><g><g><g><path fill="#f58d17" d="M14.573 4.572a4.577 4.577 0 0 1-4.571 4.571A4.577 4.577 0 0 1 5.43 4.572 4.577 4.577 0 0 1 10.002 0c2.52 0 4.571 2.05 4.571 4.572zm-.831 0a3.745 3.745 0 0 0-3.74-3.74 3.745 3.745 0 0 0-3.74 3.74 3.745 3.745 0 0 0 3.74 3.74 3.745 3.745 0 0 0 3.74-3.74z"/></g></g></g></g></g></svg>