<svg xmlns="http://www.w3.org/2000/svg" width="52" height="70" viewBox="0 0 52 70"><g><g><g><path fill="#f18a17" d="M50.614 60.195c-.566 0-1.025.46-1.025 1.025v5.022a1.71 1.71 0 0 1-1.71 1.71H4.13a1.71 1.71 0 0 1-1.708-1.71V13.095a1.025 1.025 0 0 0-2.051 0v53.147a3.764 3.764 0 0 0 3.76 3.76h43.75a3.764 3.764 0 0 0 3.76-3.76V61.22c0-.566-.46-1.025-1.026-1.025z"/></g><g><path fill="#f18a17" d="M51.34 19.441c.191.192.3.453.3.725v36.677a1.025 1.025 0 1 1-2.051 0V21.191H34.208a3.764 3.764 0 0 1-3.76-3.76V2.052H4.13A1.71 1.71 0 0 0 2.42 3.76v4.902a1.025 1.025 0 0 1-2.05 0V3.76A3.764 3.764 0 0 1 4.13 0h27.343c.272 0 .533.108.726.3zm-18.841-2.01a1.71 1.71 0 0 0 1.709 1.71h13.93L32.499 3.5z"/></g><g><path fill="#f18a17" d="M9.66 32.126a3.08 3.08 0 0 1 3.076-3.076 3.08 3.08 0 0 1 3.076 3.076 3.08 3.08 0 0 1-3.076 3.076 3.08 3.08 0 0 1-3.076-3.076zm2.05 0a1.026 1.026 0 0 0 2.052 0 1.026 1.026 0 0 0-2.051 0z"/></g><g><path fill="#f18a17" d="M22.036 35.202a3.08 3.08 0 0 1-3.076-3.076 3.08 3.08 0 0 1 3.076-3.076h17.227a3.08 3.08 0 0 1 3.076 3.076 3.08 3.08 0 0 1-3.076 3.076zm0-4.101a1.026 1.026 0 0 0 0 2.05h17.227a1.026 1.026 0 0 0 0-2.05z"/></g><g><path fill="#f18a17" d="M9.66 40.336a3.08 3.08 0 0 1 3.076-3.076 3.08 3.08 0 0 1 3.076 3.076 3.08 3.08 0 0 1-3.076 3.076 3.08 3.08 0 0 1-3.076-3.076zm2.05 0a1.026 1.026 0 0 0 2.052 0 1.026 1.026 0 0 0-2.051 0z"/></g><g><path fill="#f18a17" d="M22.036 43.412a3.08 3.08 0 0 1-3.076-3.076 3.08 3.08 0 0 1 3.076-3.076h17.227a3.08 3.08 0 0 1 3.076 3.076 3.08 3.08 0 0 1-3.076 3.076zm0-4.101a1.026 1.026 0 0 0 0 2.05h17.227a1.026 1.026 0 0 0 0-2.05z"/></g><g><path fill="#f18a17" d="M9.66 48.536a3.08 3.08 0 0 1 3.076-3.076 3.08 3.08 0 0 1 3.076 3.076 3.08 3.08 0 0 1-3.076 3.076 3.08 3.08 0 0 1-3.076-3.076zm2.05 0a1.026 1.026 0 0 0 2.052 0 1.026 1.026 0 0 0-2.051 0z"/></g><g><path fill="#f18a17" d="M22.036 51.612h1.81a1.025 1.025 0 0 0 0-2.05h-1.81a1.026 1.026 0 0 1 0-2.051h17.227a1.026 1.026 0 0 1 0 2.05H28.22a1.025 1.025 0 1 0 0 2.051h11.043a3.08 3.08 0 0 0 3.076-3.076 3.08 3.08 0 0 0-3.076-3.076H22.036a3.08 3.08 0 0 0-3.076 3.076 3.08 3.08 0 0 0 3.076 3.076z"/></g></g></g></svg>