<svg xmlns="http://www.w3.org/2000/svg" width="70" height="70" viewBox="0 0 70 70"><g><g><path fill="#f18a17" d="M69.994 35a10.48 10.48 0 0 1-3.068 7.426 10.668 10.668 0 0 1-5.098 2.806v2.6c0 10.318-8.024 18.152-18.817 18.622a4.657 4.657 0 1 1-.028-2.333c9.477-.45 16.512-7.29 16.512-16.288V45.5h-2.333a1.167 1.167 0 0 1-1.167-1.167V25.668c0-.644.522-1.166 1.167-1.166h2.197C58.262 12.793 48.99 3.522 37.282 2.424c-13.454-1.26-25.383 8.624-26.644 22.078h2.194c.645 0 1.167.522 1.167 1.166v18.665c0 .644-.522 1.167-1.167 1.167H10.5c-.291 0-.572-.03-.856-.052a.686.686 0 0 1-.09.028 1.396 1.396 0 0 1-.22.024 1.164 1.164 0 0 1-.53-.146 10.5 10.5 0 0 1-5.721-2.93c-4.104-4.097-4.11-10.745-.014-14.849a10.629 10.629 0 0 1 5.208-2.84C9.296 11.565 19.759 1.1 32.929.08 47.688-1.06 60.578 9.977 61.72 24.735A10.5 10.5 0 0 1 69.994 35zm-59.495-8.165a8.166 8.166 0 0 0 0 16.332h1.167V26.834zM40.83 65.33a2.333 2.333 0 1 0-4.665 0 2.333 2.333 0 0 0 4.666 0zm26.856-30.354a8.166 8.166 0 0 0-8.19-8.142h-1.167v16.331h1.167a8.166 8.166 0 0 0 8.19-8.19z"/></g></g></svg>