<svg xmlns="http://www.w3.org/2000/svg" width="66" height="44" viewBox="0 0 66 44"><g><g><g/><g><g><path fill="#f18a17" d="M65.16 43.754H.836a.946.946 0 0 1-.946-.946V1.186A.946.946 0 0 1 .836.24H65.16a.946.946 0 0 1 .946.946v41.622a.946.946 0 0 1-.946.946zM1.782 41.861h62.432V2.132H1.782z"/></g><g><path fill="#f18a17" d="M10.3 38.082a.946.946 0 0 1-.946-.946 2.838 2.838 0 0 0-2.838-2.838.946.946 0 0 1-.946-.946V10.65a.946.946 0 0 1 .946-.946 2.838 2.838 0 0 0 2.838-2.838.946.946 0 0 1 .946-.946h45.405a.946.946 0 0 1 .946.946 2.838 2.838 0 0 0 2.838 2.838.946.946 0 0 1 .946.946v22.702a.946.946 0 0 1-.946.946 2.838 2.838 0 0 0-2.838 2.838.946.946 0 0 1-.946.946zm44.554-1.892a4.743 4.743 0 0 1 3.689-3.689v-21a4.744 4.744 0 0 1-3.69-3.69H11.152a4.744 4.744 0 0 1-3.69 3.69v21a4.744 4.744 0 0 1 3.69 3.69z"/></g><g><path fill="#f18a17" d="M33 30.517a4.736 4.736 0 0 1-4.73-4.73h1.892a2.838 2.838 0 0 0 5.676 0c0-1.658-1.682-2.477-3.094-2.873-2.885-.808-4.474-2.475-4.474-4.694a4.73 4.73 0 1 1 9.46 0h-1.892a2.838 2.838 0 0 0-5.676 0c0 1.33 1.04 2.297 3.093 2.873 2.885.808 4.474 2.475 4.474 4.694a4.736 4.736 0 0 1-4.73 4.73z"/></g><g><path fill="#f18a17" d="M32.05 10.65h1.892v3.784H32.05z"/></g><g><path fill="#f18a17" d="M32.05 29.57h1.892v3.784H32.05z"/></g><g><path fill="#f18a17" d="M51.924 25.788a3.784 3.784 0 1 1 0-7.568 3.784 3.784 0 0 1 0 7.568zm0-5.676a1.892 1.892 0 1 0 0 3.784 1.892 1.892 0 0 0 0-3.784z"/></g><g><path fill="#f18a17" d="M14.084 25.788a3.784 3.784 0 1 1 0-7.568 3.784 3.784 0 0 1 0 7.568zm0-5.676a1.892 1.892 0 1 0 0 3.784 1.892 1.892 0 0 0 0-3.784z"/></g></g></g></g></svg>