<svg xmlns="http://www.w3.org/2000/svg" width="20" height="20" viewBox="0 0 20 20"><g><g><g><path fill="#f58d17" d="M19.475 15.448c.524.348.68 1.047.356 1.585l-1.017 1.692a2.385 2.385 0 0 1-1.413 1.089 5.902 5.902 0 0 1-1.567.205c-2.298 0-5.642-1.208-10.134-5.7C.054 8.672-.405 4.84.205 2.62c.166-.595.557-1.101 1.089-1.414L2.986.188a1.175 1.175 0 0 1 1.585.357l2.7 4.048c.339.514.227 1.202-.258 1.582L5.498 7.354a.505.505 0 0 0-.133.648l.123.225c.405.742.91 1.668 2.775 3.532 1.864 1.865 2.789 2.37 3.532 2.775l.225.124c.219.122.494.064.646-.136l1.179-1.516a1.182 1.182 0 0 1 1.582-.257zm-.218 1.243a.51.51 0 0 0-.154-.687l-4.048-2.7a.513.513 0 0 0-.687.112L13.19 14.93c-.353.461-.991.593-1.498.309l-.219-.12c-.78-.427-1.752-.956-3.685-2.89-1.934-1.932-2.463-2.904-2.89-3.685l-.12-.22a1.166 1.166 0 0 1 .31-1.496L6.602 5.65a.513.513 0 0 0 .111-.687l-1.23-1.846L4.016.916A.51.51 0 0 0 3.329.76L1.637 1.777c-.385.224-.668.59-.79 1.017C.286 4.845.752 8.427 6.173 13.848c5.42 5.42 9.003 5.887 11.053 5.324a1.723 1.723 0 0 0 1.017-.788z"/></g></g></g></svg>