<svg xmlns="http://www.w3.org/2000/svg" width="70" height="70" viewBox="0 0 70 70"><g><g><path fill="#f58d17" d="M68.759 55.395c-1.132 1.96-3.641 2.967-7.33 2.967-.908 0-1.887-.06-2.936-.184a41.28 41.28 0 0 1-4.526-.813 30.285 30.285 0 0 1-5.735 5.203 1.024 1.024 0 0 1-1.172-1.683 28.255 28.255 0 0 0 4.675-4.089c-.689-.19-1.391-.398-2.106-.622a25.295 25.295 0 0 1-5.38 4.133l-8.071 4.627a2.142 2.142 0 0 1-2.128 0l-8.071-4.627a25.324 25.324 0 0 1-5.38-4.133c-.712.223-1.413.43-2.1.62a28.157 28.157 0 0 0 6.767 5.42l9.692 5.555a.314.314 0 0 0 .312 0l7.75-4.442a1.025 1.025 0 1 1 1.019 1.78l-7.75 4.441a2.364 2.364 0 0 1-2.35 0l-9.694-5.556a30.223 30.223 0 0 1-7.979-6.628c-1.619.378-3.15.654-4.572.82-1.033.12-2 .179-2.896.179-3.687 0-6.197-1.007-7.329-2.968-1.997-3.459.702-9.039 7.595-15.73a29.98 29.98 0 0 1-.066-1.987v-5.481C2.885 26.25-.732 20.359 1.47 16.546c1.166-2.02 3.697-3.015 7.53-2.969V9.304a2.366 2.366 0 0 1 2.363-2.364h9.61V2.224A2.366 2.366 0 0 1 23.335-.14h14.501a1.025 1.025 0 1 1 0 2.05h-14.5a.313.313 0 0 0-.313.314V6.94h24.183V2.224a.313.313 0 0 0-.313-.313h-4.384a1.025 1.025 0 1 1 0-2.051h4.384a2.367 2.367 0 0 1 2.364 2.364V6.94h9.61a2.366 2.366 0 0 1 2.363 2.364v4.273c3.833-.046 6.363.95 7.529 2.969 1.568 2.715.248 6.752-3.817 11.674a50.389 50.389 0 0 1-3.712 3.989v5.469c0 .665-.023 1.327-.067 1.987 6.895 6.69 9.593 12.271 7.596 15.73zM61.23 15.628V29.3a44.111 44.111 0 0 0 2.131-2.386c3.373-4.082 4.693-7.488 3.622-9.342-.75-1.299-2.777-1.978-5.753-1.943zM8.998 29.3v-5.09a1.025 1.025 0 1 1 2.05 0v7.127a70.424 70.424 0 0 0 2.148 1.949V13.724c0-1.18.96-2.14 2.14-2.14h39.557c1.18 0 2.14.96 2.14 2.14v19.562a71.228 71.228 0 0 0 2.147-1.95V9.304a.313.313 0 0 0-.314-.313H11.362a.313.313 0 0 0-.313.313v10.232a1.025 1.025 0 1 1-2.05 0v-3.908c-2.977-.035-5.003.644-5.754 1.943-1.057 1.832.223 5.19 3.515 9.213.671.82 1.42 1.66 2.238 2.515zm40.026 24.526a23.427 23.427 0 0 0 5.958-15.579v-.602a106.413 106.413 0 0 1-6.456 4.692 13.497 13.497 0 0 1-5.327 9.302 86.301 86.301 0 0 0 5.825 2.187zm-21.995-2.188a13.495 13.495 0 0 1-5.332-9.35 1.04 1.04 0 0 1-.246-.12 104.67 104.67 0 0 1-6.204-4.53v.61c0 5.817 2.184 11.35 5.957 15.578a85.76 85.76 0 0 0 5.825-2.188zm8.085.647c6.31 0 11.444-5.134 11.444-11.445 0-3.546-4.038-11.447-10.8-21.136a.776.776 0 0 0-.644-.335.775.775 0 0 0-.643.335c-6.763 9.689-10.8 17.59-10.8 21.136 0 6.31 5.133 11.445 11.443 11.445zm19.868-17.268V13.724a.09.09 0 0 0-.09-.089H15.337a.09.09 0 0 0-.09.089v21.291c1.983 1.62 4.144 3.241 6.441 4.828.32-2.504 1.767-6.068 4.317-10.617 2.29-4.087 4.954-8.073 6.786-10.697a2.837 2.837 0 0 1 4.649 0c1.831 2.624 4.496 6.61 6.786 10.697 2.55 4.55 3.998 8.113 4.316 10.618a100.679 100.679 0 0 0 6.441-4.828zM14.857 55.578A30.437 30.437 0 0 1 9.35 42.277c-5.101 5.246-7.43 9.8-6.106 12.093.952 1.65 3.87 2.28 8.212 1.776a37.238 37.238 0 0 0 3.4-.568zm4.22-1.082a25.472 25.472 0 0 1-5.881-16.25v-2.275a82.142 82.142 0 0 1-2.147-1.86v3.567c0 6.386 2.175 12.49 5.988 17.387a59.37 59.37 0 0 0 2.04-.569zm24.153 4.032a23.24 23.24 0 0 0 4.198-3.081 92.842 92.842 0 0 1-6.375-2.491 13.417 13.417 0 0 1-5.938 1.379c-2.13 0-4.145-.497-5.938-1.379-2.197.95-4.33 1.78-6.376 2.491a23.233 23.233 0 0 0 4.197 3.082l8.072 4.625a.088.088 0 0 0 .088 0zm9.97-3.461a28.292 28.292 0 0 0 5.98-17.39v-3.555a81.627 81.627 0 0 1-2.147 1.858v2.267a25.477 25.477 0 0 1-5.882 16.25c.697.207 1.38.397 2.049.57zm7.68-12.788a30.362 30.362 0 0 1-5.498 13.3c1.174.249 2.295.439 3.35.563 4.365.512 7.295-.117 8.251-1.772 1.323-2.292-1.004-6.846-6.104-12.091z"/></g></g></svg>