<svg xmlns="http://www.w3.org/2000/svg" width="59" height="61" viewBox="0 0 59 61"><g><g><path fill="#f58d17" d="M58.364 36.347c1.146 1.741.702 4.148-.988 5.364-1.724 1.24-4.202.865-5.473-.84l-1.954.914c1.094 3.247-.073 6.925-2.833 8.947l.786 1.454c1.704-.28 3.4.803 3.869 2.463.434 1.538-.295 3.221-1.748 3.914-1.563.746-3.494.136-4.39-1.334-.787-1.294-.62-3.003.44-4.092l-.76-1.409a7.974 7.974 0 0 1-5.162.224l-.86 1.988c1.523 1.266 1.778 3.58.56 5.14a3.757 3.757 0 0 1-4.584 1.05c-1.764-.87-2.549-3.048-1.748-4.844a3.756 3.756 0 0 1 3.884-2.169l.864-1.997a7.996 7.996 0 0 1-2.91-3.095l-1.433.568c.12 1.584-.949 3.048-2.47 3.472-1.555.434-3.267-.301-3.992-1.75-.723-1.448-.256-3.232 1.05-4.173 1.425-1.026 3.475-.788 4.621.548l1.508-.597a7.978 7.978 0 0 1 .35-4.693l-13.526 9.443L.39 36.13V8.22L21.465.69 42.54 8.221V36.13l-.32.224a7.956 7.956 0 0 1 1.773.158l.635-1.287c-1.343-1.165-1.53-3.226-.406-4.602 1.01-1.235 2.804-1.604 4.225-.88 1.407.717 2.157 2.36 1.715 3.886-.453 1.568-2.03 2.584-3.642 2.416l-.563 1.143a7.966 7.966 0 0 1 3.09 2.745l2.094-.98a3.981 3.981 0 0 1 2.628-4.17c1.689-.588 3.615.073 4.596 1.564zm-11.482-2.193c1.91 0 1.937-2.876 0-2.876zM30.525 47.405c-1.91 0-1.937 2.877 0 2.877zm6.727 7.774c-1.45-.3-2.552 1.391-1.674 2.594.83 1.136 2.676.742 2.962-.637a1.671 1.671 0 0 0-1.288-1.957zm-2.895-26.794V14.384L21.465 9.987 8.573 14.384v17.444l12.892 9 11.732-8.19a3.974 3.974 0 0 1 .98-4.085l.18-.168zm4.272 2.152c-.781-1.572-3.189-1.244-3.54.452-.102.488-.001 1.006.275 1.422 1.265 1.908 4.284.174 3.265-1.874zm1.007 5.108l.844-.59V33.12a3.912 3.912 0 0 1-1.261 1.473zM37.9 36.857l-.616-1.555a3.982 3.982 0 0 1-2.938-.954l-12.881 8.993L6.513 32.903V12.91L21.465 7.81l14.952 5.099v14.552a3.979 3.979 0 0 1 4.063 2.174V9.672L21.465 2.877 2.45 9.672v25.384L21.465 48.33zm10.618 20.12c1.96.073 1.853-2.928-.06-2.928zm-3.544-17.978c-2.213-1.071-4.92-.627-6.684 1.08a5.944 5.944 0 0 0-1.359 6.454 5.963 5.963 0 0 0 5.623 3.685c2.711-.065 5.079-2.057 5.628-4.705.542-2.615-.804-5.35-3.208-6.514zm10.473-2.333c-1.652-.342-2.9 1.579-1.912 2.947.939 1.3 3.053.856 3.379-.718a1.907 1.907 0 0 0-1.467-2.229z"/></g></g></svg>