<svg xmlns="http://www.w3.org/2000/svg" width="70" height="70" viewBox="0 0 70 70"><g><g><g><path fill="#f58d17" d="M67.563 27.31c-1.225-1.077-3.09-1.842-4.674-1.452-2.145.528-3.41 2.851-5.346 3.918-.615.339-1.4.251-2.099.185-.714-.068-1.401-.325-2.071-.58-.152-.058-.27-.199-.348-.342-.894-1.654-2.082-3.21-2.555-5.03-.352-1.35 2.655-4.192 3.046-4.474 1.024-.74 2.941-.466 3.418-1.636.803-1.972.742-4.453-.15-6.386-1.253-2.713-5.704-1.234-6.926.052-.838.88-.63 2.382-1.258 3.424-.586.973-1.427 1.793-2.314 2.503-.556.445-1.234 1.007-1.939.899-3.261-.499-6.507-1.343-9.535-2.654-.73-.316-.97-1.284-1.268-2.021-.283-.7-.6-1.483-.447-2.222.427-2.063 3.099-4.073 2.138-5.948C33.853 2.852 30.54 1.211 27.558.69 24.229.11 21.61 5.651 22.435 8.022c.668 1.92 2.945 2.853 4.05 4.56.455.7.477 1.62.495 2.454.017.808.165 1.809-.393 2.393-1.258 1.316-4.028 4.038-6.372 2.903a5.054 5.054 0 0 1-1.642-1.239c-.794-.931-.842-2.746-2.025-3.062-2.03-.543-4.447-.236-6.244.852-1.076.652-1.254 2.355-1.119 3.606.135 1.25.85 2.533 1.862 3.28 1.034.764 2.553.422 3.76.87.538.2 1 .604 1.375 1.039.307.354.432.832.618 1.263.023.054.014.119.002.176-.579 2.71-1.294 5.393-1.774 8.122-.092.52.07 1.055.064 1.583 0 .072-.029.155-.086.199-.754.58-1.473 1.23-2.324 1.655-3.293 1.649-4.3.51-8.416-.15-.042-.008-.079.027-.118.04-.011.005-.028.002-.033.013-.218.445-.8.879-.633 1.345.168.466.892.432 1.345.632.016.007.033-.012.05-.018.016-.005.032-.021.049-.017 1.382.3 2.768.585 4.14.929.252.063.47.23.724.289.103.024.213-.018.315-.049 1.127-.339 2.25-.69 3.367-1.059.104-.034.204-.084.294-.146 2.084-1.437 2.795-1.415 3.421-3.834.118-.456-.14-.948-.058-1.412.007-.034 2.07-6.867 1.56-9.221-.118-.54-.46-1.007-.729-1.49a1.314 1.314 0 0 0-.31-.377c-.64-.522-1.26-1.086-1.98-1.492-.28-.159-.635-.108-.953-.162-.801-.136-1.723.036-2.404-.406-.883-.573-1.75-3.03-.412-3.841 3.349-2.03 3.464-.53 4.644 1.507.143.248.204.558.414.752.672.62 1.442 1.128 2.191 1.653.134.093.29.16.449.195.73.162 1.46.363 2.207.394.313.013.63-.106.9-.264 1.781-1.051 3.536-2.153 5.225-3.348.278-.197.541-.474.637-.801.298-1.022.365-2.097.517-3.15a1.179 1.179 0 0 0-.007-.378c-.198-1.088-.289-2.209-.654-3.253-.123-.351-.506-.546-.768-.81-1.05-1.06-2.584-1.79-3.165-3.164-.707-1.669 1.445-5.165 3.459-4.828 2.02.339 4.372 1.37 5.23 3.23.635 1.378-1.214 2.782-1.816 4.175-.156.362-.475.696-.46 1.09.04 1.042.392 2.05.618 3.068.027.123.075.243.14.351.489.818.878 1.715 1.518 2.422.345.381.9.497 1.351.746h.001c2.988.831 5.953 1.751 8.964 2.493.482.12 1.007.21 1.487.083.844-.223 1.594-.714 2.376-1.102a1.19 1.19 0 0 0 .33-.24c.942-.984 1.933-1.93 2.774-3 .188-.24.178-.584.267-.875.224-.735.174-1.619.671-2.204.658-.775 3.19-1.484 3.863-.027 1.698 3.677.11 3.556-2.12 4.463-.283.114-.627.128-.851.334-1.002.923-1.867 1.985-2.774 3.001-.09.101-.163.221-.214.347-.322.8-.75 1.576-.902 2.425-.087.493.01 1.026.206 1.486.69 1.619 1.458 3.218 2.424 4.688a5.39 5.39 0 0 0 1.773 1.696c.676.39 1.5.44 2.256.632.122.03.25.043.376.035.979-.067 1.98-.02 2.93-.26.37-.092.606-.46.901-.701 1.282-1.047 2.252-2.663 3.83-3.161 2.73-.86 4.416 2.508 4.784 4.295.022.108-1.081 3.418.05 3.945.45.21 1.176-.066 1.397-.51.543-1.09-.427-7.194-1.767-8.37z"/></g><g><path fill="#f58d17" d="M63.786 37.482c-1.529-.693-2.886-1.714-4.332-2.566-.347-.204-.645-.564-1.045-.602-.916-.086-1.836.142-2.75.243-.126.014-.25.049-.365.1-.7.317-1.491.504-2.076 1.002a5.408 5.408 0 0 0-1.452 2.005c-.508 1.211-.807 2.513-.987 3.813-.101.735-.028 1.5.154 2.22.123.489.468.896.74 1.322.087.137.2.263.331.36.668.486 1.317 1.015 2.058 1.38.29.143.64.073.961.109.808.091 1.718-.132 2.424.272.912.523 1.913 2.93.623 3.812-3.231 2.213-3.43.722-4.72-1.248-.157-.239-.235-.545-.455-.727-.706-.582-1.502-1.046-2.28-1.529-.425-.264-1.728-.37-1.893-.345-2.232.345-4.55 2.103-6.03 3.506-.632.6-1.15 1.37-1.41 2.203-.288.927-.136 1.937-.181 2.907a1.16 1.16 0 0 0 .03.322c.286 1.197.467 2.429.902 3.58.124.328.49.503.735.755.83.85 2.054 1.443 2.487 2.548.5 1.276-.732 4.555-2.67 4.326-1.575-.186-3.379-.96-4.134-2.353-.595-1.098.582-2.428.887-3.639.086-.338.33-.661.283-1.006-.166-1.227-.59-2.405-.907-3.602a1.165 1.165 0 0 0-.127-.298c-.454-.758-.747-1.654-1.399-2.25-.745-.681-1.769-.972-2.654-1.457h-.002c-1.127-.11-2.253-.433-3.381-.33-.994.09-2.002.383-2.856.9-.767.466-1.244 1.292-1.85 1.953-.073.08-.136.17-.184.267-.704 1.425-1.485 2.818-2.07 4.296-.114.285.002.613.003.92.004.774.316 1.61.012 2.32-.412.963-2.61 2.326-3.69 1.155-.789-.857-1.314-2.15-1.147-3.302.301-2.08 1.885-.96 2.563-2.148.794-1.389 1.404-2.875 2.084-4.323.046-.098.078-.204.094-.31.151-.966.504-1.93.408-2.903-.248-2.523-3.69-5.788-4.88-6.907-.613-.575-1.38-1.038-2.195-1.241-.937-.234-1.932-.034-2.898-.028-.11 0-.22.017-.325.048-1.062.318-2.174.517-3.173.998-.344.167-.486.59-.729.885-.953 1.158-1.367 3.321-2.859 3.474-1.922.198-3.805-1.267-5.155-2.65-.035-.036.445-3.574-.625-3.943-.469-.16-1.194.177-1.336.652-.376 1.26-.802 2.874-.037 3.943 1.42 1.984 3.762 3.173 5.93 4.289.557.285 1.366.104 1.854-.286 1.613-1.289 2.59-3.258 4.2-4.552.654-.526 1.571-.637 2.403-.755.901-.129 1.823-.048 2.73.025.159.013.31.113.418.23a146.125 146.125 0 0 1 4.426 5.073c.103.124.181.291.17.452-.17 2.546-.6 4.276-2.195 6.497-.757 1.053-2.704 1.39-2.817 2.682-.183 2.085.644 4.39 2.061 5.931 2.01 2.185 5.801-.437 6.614-2.073.544-1.097-.127-2.486.19-3.668.555-2.066 1.828-4.198 3.531-5.555.252-.2.6-.29.923-.285 1.273.023 2.534.247 3.801.37h.001c.286.155.648.217.858.465 1.02 1.21 2.093 3.406 2.042 5.007-.058 1.806-1.771 3.699-.993 5.33.953 1.998 3.465 2.79 5.389 3.886.35.199.85.065 1.2-.132 2.615-1.466 5.52-3.032 4.251-6.892-.532-1.62-2.476-2.397-3.36-3.854-.513-.843-.627-1.888-.724-2.87-.09-.911.039-1.836.172-2.742a.788.788 0 0 1 .301-.48c1.393-1.087 2.838-2.108 4.296-3.105a.92.92 0 0 1 .49-.17c.399-.005.822-.017 1.186.145.626.28 1.235.65 1.708 1.146.844.886.993 2.696 2.191 2.946 2.056.43 4.453-.01 6.187-1.197 2.415-1.652.408-5.83-1.122-6.834-1.076-.706-2.574-.28-3.802-.661-.55-.17-1.027-.553-1.432-.96-.297-.3-.455-.715-.617-1.103a.735.735 0 0 1-.026-.438 69.635 69.635 0 0 1 1.107-4.278.705.705 0 0 1 .283-.403c.797-.481 2.684-1.485 3.772-1.083 2.139.79 3.961 2.298 6.093 3.105.705.267 2.36-.583 2.021-1.614-.155-.47-1.95-.35-2.231-.478z"/></g><g><path fill="#f58d17" d="M37.911 20.91a14.784 14.784 0 0 0-3.376-.39c-8.114 0-14.715 6.601-14.715 14.715S26.421 49.95 34.535 49.95 49.25 43.349 49.25 35.235c0-5.073-2.563-9.724-6.855-12.441a1.05 1.05 0 1 0-1.124 1.776 12.563 12.563 0 0 1 5.877 10.665c0 6.955-5.658 12.613-12.613 12.613-6.955 0-12.613-5.658-12.613-12.613 0-6.955 5.658-12.613 12.613-12.613.977 0 1.951.112 2.896.334a1.05 1.05 0 1 0 .48-2.046z"/></g><g><path fill="#f58d17" d="M6.6 6.502a4.948 4.948 0 0 1 4.942-4.942 4.948 4.948 0 0 1 4.942 4.942 4.948 4.948 0 0 1-4.942 4.942A4.948 4.948 0 0 1 6.6 6.502zm2.102 0a2.844 2.844 0 0 0 2.84 2.84 2.844 2.844 0 0 0 2.84-2.84 2.844 2.844 0 0 0-2.84-2.84 2.844 2.844 0 0 0-2.84 2.84z"/></g><g><path fill="#f58d17" d="M14.102 57.801a3.625 3.625 0 0 1-3.62 3.621 3.625 3.625 0 0 1-3.622-3.62 3.625 3.625 0 0 1 3.621-3.622 3.625 3.625 0 0 1 3.621 3.621zm-2.101 0c0-.838-.682-1.52-1.52-1.52s-1.52.682-1.52 1.52.682 1.52 1.52 1.52 1.52-.682 1.52-1.52z"/></g><g><path fill="#f58d17" d="M62.503 62.017a4.842 4.842 0 0 1-4.836 4.836 4.842 4.842 0 0 1-4.837-4.836 4.842 4.842 0 0 1 4.837-4.837 4.842 4.842 0 0 1 4.836 4.837zm-2.101 0a2.738 2.738 0 0 0-2.735-2.735 2.738 2.738 0 0 0-2.735 2.735 2.738 2.738 0 0 0 2.735 2.734 2.738 2.738 0 0 0 2.735-2.734z"/></g><g><path fill="#f58d17" d="M30.34 36.05a4.586 4.586 0 0 1-4.58-4.58 4.586 4.586 0 0 1 4.58-4.58 4.586 4.586 0 0 1 4.58 4.58 4.586 4.586 0 0 1-4.58 4.58zm2.479-4.58a2.481 2.481 0 0 0-2.479-2.478 2.481 2.481 0 0 0-2.478 2.478 2.481 2.481 0 0 0 2.478 2.479 2.481 2.481 0 0 0 2.479-2.479z"/></g><g><path fill="#f58d17" d="M29.72 42.433a3.457 3.457 0 0 1 3.453-3.453 3.457 3.457 0 0 1 3.453 3.453 3.457 3.457 0 0 1-3.453 3.453 3.457 3.457 0 0 1-3.453-3.453zm2.102 0c0 .746.606 1.352 1.351 1.352s1.352-.606 1.352-1.352a1.353 1.353 0 0 0-2.703 0z"/></g><g><path fill="#f58d17" d="M40.718 32.17a3.072 3.072 0 0 1 3.068 3.068 3.072 3.072 0 0 1-3.068 3.068 3.072 3.072 0 0 1-3.068-3.068 3.072 3.072 0 0 1 3.068-3.068zm-.966 3.068a.968.968 0 0 0 1.933 0 .968.968 0 0 0-1.933 0z"/></g></g></g></svg>