<svg xmlns="http://www.w3.org/2000/svg" width="76" height="76" viewBox="0 0 76 76"><g><g><path fill="#f1f1f1" d="M75.332 43.574c.43.43.666 1.001.666 1.609a2.26 2.26 0 0 1-.666 1.608c-.43.43-1.001.666-1.609.666a2.26 2.26 0 0 1-1.608-.666l-5.965-5.965a28.533 28.533 0 0 1-6.165 15.004l3.318 3.318h9.485a2.26 2.26 0 0 1 1.608.666c.43.43.666 1 .666 1.608a2.277 2.277 0 0 1-2.274 2.275h-8.152v8.152a2.277 2.277 0 0 1-2.275 2.275 2.26 2.26 0 0 1-1.608-.667c-.43-.43-.667-1-.666-1.608v-9.484l-3.217-3.217a28.864 28.864 0 0 1-16.081 7.309l5.66 5.66c.43.43.666 1 .666 1.608a2.26 2.26 0 0 1-.666 1.609c-.43.43-1 .666-1.608.666a2.26 2.26 0 0 1-1.609-.666l-5.764-5.765-5.764 5.765c-.43.43-1 .666-1.608.666a2.26 2.26 0 0 1-1.608-.666c-.43-.43-.667-1.001-.667-1.609 0-.607.237-1.178.666-1.608l5.661-5.66a28.884 28.884 0 0 1-15.903-7.15l-3.059 3.058v9.484a2.26 2.26 0 0 1-.666 1.608c-.43.43-1 .667-1.608.667a2.277 2.277 0 0 1-2.275-2.275v-8.152H2.485a2.277 2.277 0 0 1-2.274-2.274 2.277 2.277 0 0 1 2.274-2.275h9.485l3.133-3.133A28.588 28.588 0 0 1 8.902 41.77l-5.02 5.02c-.43.43-1 .666-1.608.666a2.26 2.26 0 0 1-1.609-.666 2.277 2.277 0 0 1 0-3.217L6.43 37.81.665 32.046a2.277 2.277 0 0 1 0-3.217c.43-.43 1.001-.666 1.609-.666a2.26 2.26 0 0 1 1.608.666l5.02 5.02c.769-5.636 3.149-10.826 6.94-15.115l-2.64-2.64H3.718a2.277 2.277 0 0 1-2.275-2.274 2.277 2.277 0 0 1 2.275-2.275h8.152V3.395a2.277 2.277 0 0 1 2.274-2.275 2.277 2.277 0 0 1 2.275 2.275v9.484l2.69 2.691a28.547 28.547 0 0 1 14.698-6.366l-5.32-5.32c-.429-.43-.666-1-.666-1.608 0-.608.237-1.18.667-1.609.43-.43 1-.666 1.608-.666a2.26 2.26 0 0 1 1.608.666l5.764 5.764L43.232.666A2.26 2.26 0 0 1 44.841 0a2.26 2.26 0 0 1 1.608.666c.43.43.667 1.001.667 1.609 0 .607-.237 1.178-.667 1.608l-5.32 5.32a28.922 28.922 0 0 1 15.54 7.092l3.418-3.417V3.394a2.277 2.277 0 0 1 2.274-2.275 2.277 2.277 0 0 1 2.275 2.275v8.152h8.152a2.277 2.277 0 0 1 2.274 2.274 2.277 2.277 0 0 1-2.274 2.275h-9.485l-3.487 3.487a28.515 28.515 0 0 1 6.334 15.212l5.965-5.965c.43-.43 1-.666 1.608-.666a2.26 2.26 0 0 1 1.609.666c.43.43.666 1 .666 1.609a2.26 2.26 0 0 1-.666 1.608l-5.764 5.764zM55.43 19.382A.969.969 0 0 0 56.8 20.75l5.77-5.771a.654.654 0 0 1 .463-.192h9.754a.969.969 0 0 0 0-1.935h-8.805a.653.653 0 0 1-.653-.654V3.394a.969.969 0 0 0-1.935 0v9.755c0 .173-.07.34-.192.462zM29.411 2.959l6.898 6.898a.654.654 0 0 1 .192.462v8.161a.969.969 0 0 0 1.935 0V10.32c0-.173.069-.34.192-.462l6.897-6.898a.961.961 0 0 0 .284-.684c0-.259-.101-.502-.284-.685a.961.961 0 0 0-.684-.283c-.259 0-.502.1-.684.283L37.93 7.817a.653.653 0 0 1-.924 0L30.78 1.59a.96.96 0 0 0-.684-.283.96.96 0 0 0-.684.283.961.961 0 0 0-.284.685c0 .258.1.501.283.684zm-15.938 11.83c.173 0 .34.068.462.19l4.538 4.54a.962.962 0 0 0 .685.283.969.969 0 0 0 .684-1.652l-4.539-4.539a.653.653 0 0 1-.191-.462V3.394a.969.969 0 0 0-1.936 0V12.2a.653.653 0 0 1-.653.654H3.718a.969.969 0 0 0 0 1.935zm-3.617 24.18a.654.654 0 0 1 .462-.191h6.418a.969.969 0 0 0 0-1.936h-6.418a.654.654 0 0 1-.462-.191l-6.898-6.898a.96.96 0 0 0-.684-.283.97.97 0 0 0-.684 1.652l6.225 6.226a.653.653 0 0 1 0 .924L1.59 44.498a.97.97 0 0 0 .685 1.653c.258 0 .501-.101.684-.284zm9.114 17.764a.969.969 0 0 0-1.369-1.369l-4.899 4.9a.653.653 0 0 1-.462.19H2.485a.969.969 0 0 0 0 1.937h8.805c.361 0 .654.292.654.653v8.805a.969.969 0 0 0 1.935 0v-9.755c0-.173.07-.34.192-.462zM45.525 73.04l-6.897-6.898a.653.653 0 0 1-.192-.462V57.52a.969.969 0 0 0-1.935 0v8.161c0 .174-.07.34-.192.462l-6.898 6.898a.961.961 0 0 0-.283.684c0 .259.1.502.283.685a.961.961 0 0 0 .685.283c.258 0 .501-.1.684-.283l6.226-6.227a.654.654 0 0 1 .924 0l6.227 6.227a.961.961 0 0 0 .684.283c.258 0 .501-.1.684-.283a.962.962 0 0 0 .284-.685c0-.258-.1-.501-.284-.684zm17.508-12.586a.652.652 0 0 1-.462-.192l-5.41-5.41a.96.96 0 0 0-.685-.283c-.258 0-.501.1-.684.283a.962.962 0 0 0-.284.684c0 .259.101.502.284.685l5.41 5.41a.653.653 0 0 1 .191.462v9.755c0 .258.101.501.284.684a.969.969 0 0 0 1.652-.684v-8.805a.653.653 0 0 1 .653-.654h8.805a.969.969 0 0 0 0-1.935zm-3.979-5.556a27.246 27.246 0 0 0 5.852-14.814h-3.034a22.242 22.242 0 0 1-5.15 12.658.653.653 0 1 1-1.004-.839 20.943 20.943 0 0 0 4.84-11.82H59.26a2.277 2.277 0 0 1-2.275-2.274 2.277 2.277 0 0 1 2.275-2.274h5.645a27.223 27.223 0 0 0-6.02-15.024l-1.162 1.163c-.43.43-1.001.666-1.609.666a2.26 2.26 0 0 1-1.608-.666 2.277 2.277 0 0 1 0-3.217l1.237-1.237a27.59 27.59 0 0 0-15.801-6.831l-.2.2v7.89a2.277 2.277 0 0 1-2.275 2.275 2.277 2.277 0 0 1-2.274-2.274v-3.75a20.927 20.927 0 0 0-12.016 5.043.65.65 0 0 1-.922-.068.653.653 0 0 1 .068-.922 22.228 22.228 0 0 1 12.865-5.366h.005V10.59l-.2-.2a27.262 27.262 0 0 0-14.955 6.108l.727.728a2.277 2.277 0 0 1-1.608 3.883 2.26 2.26 0 0 1-1.609-.666l-.782-.782a27.216 27.216 0 0 0-6.689 15.365l.51.51h6.148a2.277 2.277 0 0 1 2.275 2.274 2.277 2.277 0 0 1-2.275 2.275h-2.754a18.497 18.497 0 0 0 4.347 10.289.654.654 0 0 1-.995.846 19.8 19.8 0 0 1-4.664-11.118v-.017h-2.081l-.51.51a27.296 27.296 0 0 0 5.953 14.49l.646-.645c.43-.43 1-.666 1.608-.666a2.26 2.26 0 0 1 1.609.666c.886.887.886 2.33 0 3.217l-.724.723a27.562 27.562 0 0 0 16.023 6.867V57.52a2.277 2.277 0 0 1 2.275-2.275 2.277 2.277 0 0 1 2.274 2.275v7.727a27.545 27.545 0 0 0 16.201-7.025l-1.076-1.076c-.43-.43-.666-1-.666-1.608 0-.608.236-1.179.666-1.609.43-.43 1-.666 1.609-.666a2.26 2.26 0 0 1 1.608.666zm15.637-9.717c0-.258-.1-.501-.284-.684l-6.226-6.226a.654.654 0 0 1 0-.924l6.226-6.226a.961.961 0 0 0 .284-.685c0-.258-.1-.501-.284-.684a.961.961 0 0 0-.684-.283c-.258 0-.501.1-.684.283l-6.898 6.898a.653.653 0 0 1-.462.191h-6.418a.969.969 0 0 0 0 1.936h6.418c.173 0 .34.069.462.191l6.898 6.898a.96.96 0 0 0 .684.283c.259 0 .502-.1.684-.283a.961.961 0 0 0 .284-.684z"/></g></g></svg>