<svg width="20px" height="20px" viewBox="0 0 520 520" xmlns="http://www.w3.org/2000/svg"><path d="M517.73 200.49L331.799 188.26 261.73 12.241l-70.067 176.021L5.73 200.49l142.658 120.93-46.802 183.68L261.73 403.883 421.875 505.1l-46.8-183.67 142.656-120.94zm-256 167.904l-112.463 71.08 32.827-128.83L81.56 225.557l130.97-8.603 49.2-123.598 49.2 123.6 131.125 8.601-100.69 85.077 32.83 128.84-112.464-71.08z" fill="#f18a17"/><path d="M261.9 93.652l48.919 123.301 131.095 8.645-100.551 84.971 32.849 129.102L261.88 368.97l-112.456 70.307 32.877-128.428-100.217-84.807 130.317-9.416L261.9 93.652z" paint-order="fill" fill="#fff"/></svg>